<svg xmlns="http://www.w3.org/2000/svg" viewBox="0 0 512 512">
  <defs>
    <linearGradient id="bg" x1="0%" x2="100%" y1="0%" y2="100%">
      <stop offset="0%" stop-color="#0d1f2b" />
      <stop offset="100%" stop-color="#153d56" />
    </linearGradient>
  </defs>
  <rect width="512" height="512" rx="112" fill="url(#bg)" />
  <circle cx="256" cy="266" r="132" fill="#ff7a18" />
  <path d="M124 266h264M256 134c28 52 28 212 0 264M164 174c44 26 78 74 92 92 16 20 48 66 92 94M348 174c-44 26-78 74-92 92-16 20-48 66-92 94" fill="none" stroke="#602d05" stroke-width="18" stroke-linecap="round"/>
  <path d="M128 120h256" stroke="#f1d36a" stroke-width="18" stroke-linecap="round"/>
  <path d="M332 154h62" stroke="#f4f8fc" stroke-width="18" stroke-linecap="round"/>
  <path d="M282 154h80a14 14 0 0 1 14 14v28h-108" fill="none" stroke="#f4f8fc" stroke-width="18" stroke-linecap="round" stroke-linejoin="round"/>
</svg>
